<svg width="1600" height="1200" viewBox="0 0 1600 1200" fill="none" xmlns="http://www.w3.org/2000/svg">
  <rect width="1600" height="1200" fill="#F8F0E2"/>
  <path d="M0 315C148 246 275 223 421 245C545 264 651 313 770 322C929 334 1050 247 1202 221C1350 196 1465 229 1600 305V1200H0V315Z" fill="#E8D7B8"/>
  <path d="M0 410C160 362 318 356 450 384C576 411 711 477 861 473C1039 468 1155 362 1317 337C1435 319 1511 341 1600 389V1200H0V410Z" fill="#D6C09D"/>
  <path d="M0 566C118 523 240 506 373 515C520 526 660 589 824 606C1012 625 1168 578 1305 523C1414 479 1500 462 1600 477V1200H0V566Z" fill="#AEC48A"/>
  <path d="M0 685C171 631 297 632 451 669C587 701 719 760 872 772C1034 784 1189 744 1330 681C1438 632 1523 614 1600 620V1200H0V685Z" fill="#8FA969"/>
  <path d="M0 796C124 764 242 758 362 774C517 794 650 857 833 880C1018 904 1164 884 1305 826C1420 779 1510 758 1600 764V1200H0V796Z" fill="#6F8750"/>
  <path d="M0 892C193 850 352 864 524 910C700 958 873 1016 1087 1020C1289 1024 1441 975 1600 918V1200H0V892Z" fill="#55703F"/>

  <g opacity="0.55">
    <ellipse cx="155" cy="1008" rx="70" ry="19" fill="#415B31"/>
    <rect x="148" y="892" width="14" height="121" rx="7" fill="#7A553B"/>
    <circle cx="155" cy="846" r="56" fill="#71924F"/>
    <circle cx="117" cy="872" r="40" fill="#7FA55C"/>
    <circle cx="193" cy="872" r="39" fill="#7BA158"/>
    <circle cx="149" cy="802" r="32" fill="#88AE62"/>
    <circle cx="131" cy="833" r="8" fill="#C94B33"/>
    <circle cx="177" cy="857" r="8" fill="#D25535"/>
    <circle cx="117" cy="887" r="8" fill="#D96A3B"/>
    <circle cx="196" cy="887" r="8" fill="#C94B33"/>
    <circle cx="150" cy="905" r="8" fill="#D96A3B"/>
  </g>
  <g opacity="0.62">
    <ellipse cx="375" cy="985" rx="73" ry="19" fill="#415B31"/>
    <rect x="367" y="867" width="16" height="123" rx="8" fill="#7A553B"/>
    <circle cx="375" cy="820" r="60" fill="#71924F"/>
    <circle cx="335" cy="848" r="41" fill="#7FA55C"/>
    <circle cx="420" cy="851" r="41" fill="#7BA158"/>
    <circle cx="377" cy="775" r="33" fill="#88AE62"/>
    <circle cx="345" cy="845" r="8" fill="#D25535"/>
    <circle cx="401" cy="833" r="8" fill="#D96A3B"/>
    <circle cx="329" cy="880" r="8" fill="#C94B33"/>
    <circle cx="420" cy="886" r="8" fill="#D25535"/>
    <circle cx="372" cy="900" r="8" fill="#C94B33"/>
  </g>
  <g opacity="0.68">
    <ellipse cx="636" cy="1020" rx="79" ry="20" fill="#415B31"/>
    <rect x="627" y="893" width="18" height="132" rx="9" fill="#7A553B"/>
    <circle cx="636" cy="842" r="64" fill="#71924F"/>
    <circle cx="593" cy="878" r="44" fill="#7FA55C"/>
    <circle cx="683" cy="876" r="42" fill="#7BA158"/>
    <circle cx="637" cy="791" r="36" fill="#88AE62"/>
    <circle cx="601" cy="846" r="9" fill="#C94B33"/>
    <circle cx="673" cy="851" r="9" fill="#D96A3B"/>
    <circle cx="627" cy="905" r="9" fill="#D25535"/>
    <circle cx="690" cy="887" r="9" fill="#C94B33"/>
    <circle cx="574" cy="892" r="9" fill="#D96A3B"/>
  </g>
  <g opacity="0.72">
    <ellipse cx="952" cy="992" rx="79" ry="20" fill="#415B31"/>
    <rect x="944" y="868" width="17" height="129" rx="8.5" fill="#7A553B"/>
    <circle cx="952" cy="818" r="64" fill="#71924F"/>
    <circle cx="907" cy="848" r="42" fill="#7FA55C"/>
    <circle cx="1000" cy="853" r="43" fill="#7BA158"/>
    <circle cx="952" cy="768" r="36" fill="#88AE62"/>
    <circle cx="917" cy="843" r="9" fill="#D25535"/>
    <circle cx="1006" cy="876" r="9" fill="#C94B33"/>
    <circle cx="969" cy="892" r="9" fill="#D96A3B"/>
    <circle cx="932" cy="901" r="9" fill="#C94B33"/>
    <circle cx="982" cy="826" r="9" fill="#D25535"/>
  </g>
  <g opacity="0.8">
    <ellipse cx="1270" cy="1042" rx="84" ry="22" fill="#415B31"/>
    <rect x="1261" y="906" width="18" height="140" rx="9" fill="#7A553B"/>
    <circle cx="1270" cy="851" r="68" fill="#71924F"/>
    <circle cx="1224" cy="885" r="47" fill="#7FA55C"/>
    <circle cx="1320" cy="885" r="45" fill="#7BA158"/>
    <circle cx="1270" cy="794" r="38" fill="#88AE62"/>
    <circle cx="1229" cy="873" r="10" fill="#D25535"/>
    <circle cx="1313" cy="903" r="10" fill="#C94B33"/>
    <circle cx="1260" cy="936" r="10" fill="#D96A3B"/>
    <circle cx="1293" cy="846" r="10" fill="#D25535"/>
    <circle cx="1238" cy="927" r="10" fill="#C94B33"/>
  </g>

  <path d="M0 1117C273 1064 479 1093 696 1138C885 1176 1168 1198 1600 1110V1200H0V1117Z" fill="#4B5C37"/>
  <path d="M1005 231C1084 204 1158 192 1236 201C1310 210 1371 247 1450 252C1486 254 1521 250 1561 238V293C1516 305 1477 310 1437 308C1363 304 1307 271 1235 263C1158 255 1079 268 1005 300V231Z" fill="#D9C09A"/>
  <path d="M1367 115C1380 92 1412 83 1436 96C1446 102 1453 112 1457 123C1467 116 1476 113 1488 116C1510 122 1525 145 1522 169C1518 196 1498 218 1475 235C1454 250 1429 259 1405 267C1373 241 1346 212 1334 173C1325 146 1337 116 1367 115Z" fill="#E18C4A"/>
  <path d="M1450 90C1454 72 1474 61 1493 66C1511 71 1523 90 1520 108C1517 126 1502 142 1486 154C1472 143 1460 130 1453 116C1449 108 1447 99 1450 90Z" fill="#F1A65A"/>
</svg>
